<?xml version="1.0" encoding="utf-8"?>
<svg version="1.1" id="MARVEL_xAE__Logo" xmlns="http://www.w3.org/2000/svg" width="500px" height="200px" viewBox="0 0 500 200">
<g>
	<rect id="fill" fill="#f0141e" width="500" height="200"/>
	<path id="text" fill="#fff" d="M423.12,46.619V15.991h-85.706l-14.111,102.283L309.363,15.991h-30.908l3.454,27.313
		c-3.564-7-16.211-27.313-44.061-27.313c-0.184-0.012-30.945,0-30.945,0l-0.128,149.084L184.253,15.991l-40.485-0.012
		l-23.303,154.467l0.012-154.455H81.726l-13.965,86.768L54.157,15.991H15.399v167.932h30.524v-80.944l13.885,80.944h16.224
		l13.69-80.944v80.944h58.838l3.558-25.83h23.688l3.558,25.83l57.77,0.037h0.042v-0.037h0.031h0.042v-54.504l7.074-1.025
		l14.661,55.566h0.037h29.785h0.061l-0.012-0.037h0.049h0.036l-19.238-65.111c9.741-7.178,20.752-25.379,17.822-42.798
		c0,0,0,0,0-0.006c0.036,0.226,18.164,108.026,18.164,108.026l35.534-0.11l24.28-152.203v152.203h57.617v-30.199h-27.344v-38.507
		h27.344V84.558h-27.344V46.619H423.12z M155.713,131.47l8.386-71.802l8.691,71.802H155.713z M244.421,98.315
		c-2.344,1.123-4.785,1.685-7.172,1.691v-54.01c0.037,0,0.092-0.006,0.153-0.006c2.38-0.018,20.203,0.714,20.203,26.709
		C257.605,86.297,251.545,94.873,244.421,98.315z M484.607,153.698v30.188h-56.214V15.967h30.273v137.731H484.607z"/>
</g>
</svg>
